<?xml version="1.0" standalone="no"?>
<!DOCTYPE svg PUBLIC "-//W3C//DTD SVG 20010904//EN"
 "http://www.w3.org/TR/2001/REC-SVG-20010904/DTD/svg10.dtd">
<svg xmlns="http://www.w3.org/2000/svg" viewBox="0 0 2712 501" width="100%" height="auto"><style>path{fill:#e5d9b6}</style>
<metadata>
Created by potrace 1.16, written by Peter Selinger 2001-2019
</metadata>
<g transform="translate(0.000000,501.000000) scale(0.100000,-0.100000)"
fill="#1f261d" stroke="none">
<path d="M0 2507 l0 -2507 13560 0 13560 0 0 2493 0 2493 -76 14 c-63 11 -223
12 -868 6 -435 -3 -899 -8 -1031 -11 -324 -6 -22405 -6 -22810 0 -176 3 -773
8 -1327 11 l-1008 7 0 -2506z m24080 1033 l5 -775 60 3 c109 4 239 23 280 39
172 68 186 75 256 131 69 55 131 132 165 202 15 30 33 67 40 82 8 14 14 34 14
43 0 9 6 31 14 48 8 18 16 66 19 108 2 42 7 81 11 87 5 9 87 12 295 12 333 0
318 4 306 -88 -4 -31 -10 -84 -15 -117 -7 -59 -40 -210 -59 -270 -19 -63 -100
-224 -151 -300 -32 -48 -106 -131 -183 -208 l-130 -128 24 -26 c13 -14 47 -50
76 -79 70 -72 162 -187 192 -238 13 -22 37 -57 52 -77 16 -20 29 -41 29 -47 0
-5 7 -15 15 -22 8 -7 15 -19 15 -28 0 -8 6 -23 14 -31 17 -20 76 -131 76 -143
0 -6 14 -27 30 -48 17 -21 30 -42 30 -48 0 -10 56 -120 71 -138 5 -6 27 -47
50 -90 22 -44 55 -106 74 -139 19 -33 37 -67 41 -75 4 -8 14 -23 22 -33 10
-11 12 -21 6 -27 -7 -7 -144 -9 -374 -8 l-363 3 -33 60 c-18 33 -33 66 -34 74
0 8 -9 24 -19 35 -11 12 -39 59 -64 106 -92 177 -129 245 -140 259 -7 7 -23
35 -37 61 -111 212 -288 358 -480 396 -94 18 -173 25 -187 16 -10 -6 -13 -123
-15 -508 l-3 -499 -325 0 -325 0 -3 1590 c-1 875 0 1596 3 1603 3 10 74 12
327 10 l323 -3 5 -775z m2292 762 c26 -10 76 -41 111 -70 61 -51 67 -60 138
-204 14 -27 10 -179 -4 -218 -51 -134 -110 -202 -227 -258 -66 -32 -84 -36
-155 -36 -86 0 -147 16 -213 57 -20 13 -42 26 -48 28 -25 9 -108 125 -125 175
-25 71 -26 216 -1 292 13 43 32 71 82 122 102 104 157 128 300 129 69 1 108
-4 142 -17z m-11571 -461 c66 -65 119 -125 119 -133 0 -8 -34 -47 -75 -87 -41
-40 -72 -77 -69 -82 3 -5 398 -9 927 -9 742 0 945 -3 1037 -15 127 -15 198
-30 248 -51 18 -8 39 -14 46 -14 8 0 19 -7 26 -15 7 -8 21 -15 31 -15 22 0 92
-34 136 -67 17 -12 35 -23 39 -23 13 0 149 -110 196 -159 60 -62 148 -171 148
-183 0 -5 13 -26 28 -46 29 -37 111 -222 132 -297 29 -100 52 -398 38 -485 -4
-25 -12 -76 -17 -115 -12 -84 -28 -150 -46 -190 -8 -16 -28 -61 -45 -100 -17
-38 -35 -77 -40 -85 -5 -8 -26 -42 -47 -75 -55 -90 -219 -275 -243 -275 -5 0
-15 -6 -22 -13 -67 -65 -223 -151 -333 -182 -33 -10 -71 -22 -85 -27 -51 -20
-219 -42 -310 -42 -95 1 -231 21 -283 43 -16 6 -41 11 -56 11 -15 0 -36 7 -47
15 -10 8 -29 15 -42 15 -13 0 -38 11 -55 24 -34 24 -94 56 -108 56 -5 0 -10
-206 -11 -457 l-3 -458 -325 0 -325 0 -3 249 -2 249 271 271 c149 149 278 281
287 294 15 23 11 28 -271 310 l-287 287 0 308 0 307 328 -2 327 -3 6 -210 c5
-201 7 -213 34 -280 51 -126 119 -210 230 -284 66 -44 202 -81 299 -81 109 0
240 36 298 81 20 16 41 29 46 29 13 0 114 105 132 138 8 15 27 47 41 72 67
115 69 375 4 500 -56 107 -137 201 -210 240 -22 11 -47 25 -55 29 -115 62
-131 63 -1165 59 l-910 -3 84 -88 84 -87 -64 -67 c-87 -92 -189 -193 -195
-193 -2 0 -173 168 -379 374 -228 227 -375 381 -375 392 0 19 735 764 754 764
4 0 62 -53 127 -119z m-11470 -285 c24 -7 71 -21 104 -31 123 -36 177 -56 213
-78 20 -12 57 -32 82 -44 25 -12 63 -38 84 -58 22 -19 44 -35 49 -35 11 0 125
-116 179 -183 32 -38 71 -97 118 -177 5 -8 23 -51 40 -95 17 -44 36 -89 42
-99 42 -75 73 -416 52 -561 l-9 -60 -880 -3 c-483 -1 -883 -6 -887 -10 -13
-13 65 -158 114 -210 90 -96 186 -149 328 -178 79 -17 118 -17 212 -3 91 14
218 61 218 81 0 3 9 9 19 13 11 3 36 21 57 40 l38 35 362 0 c238 0 365 -4 369
-10 4 -6 -2 -30 -13 -53 -11 -23 -22 -51 -25 -62 -13 -47 -35 -94 -71 -150
-21 -33 -44 -69 -51 -80 -31 -49 -194 -210 -259 -255 -157 -110 -367 -191
-556 -215 -164 -21 -179 -21 -285 -12 -136 11 -172 18 -335 64 -75 21 -240
103 -325 162 -104 73 -304 290 -305 333 -1 7 -14 29 -30 48 -17 19 -30 41 -30
50 0 8 -7 24 -15 34 -8 11 -15 28 -15 39 0 10 -6 31 -14 45 -54 102 -76 241
-76 481 0 270 14 345 106 559 8 18 14 38 14 43 0 6 13 28 28 48 15 20 36 53
47 74 11 20 34 54 52 75 98 114 159 180 169 181 6 1 38 22 70 49 33 26 73 53
89 61 17 7 46 22 65 33 89 49 305 116 415 129 100 11 393 2 446 -15z m2524 -2
c27 -8 64 -19 80 -25 17 -6 44 -14 60 -19 57 -16 100 -34 143 -62 24 -15 47
-28 52 -28 10 0 68 -38 119 -78 104 -82 218 -218 273 -327 70 -137 92 -212
123 -415 14 -90 16 -205 13 -795 l-3 -690 -330 0 -330 0 -5 735 c-4 471 -10
748 -17 771 -26 91 -124 201 -213 241 -25 11 -53 25 -62 29 -61 31 -269 32
-315 3 -12 -8 -32 -14 -43 -14 -29 0 -118 -59 -162 -108 -40 -44 -78 -111 -78
-137 0 -9 -7 -26 -15 -39 -14 -21 -16 -113 -15 -742 0 -396 -4 -725 -8 -732
-7 -9 -80 -12 -333 -10 l-324 3 0 765 c0 684 2 770 16 815 10 28 31 97 49 155
18 58 36 110 41 116 5 6 26 42 46 80 51 98 148 210 248 289 28 22 52 43 53 47
2 5 7 8 12 8 5 0 41 19 82 43 40 24 120 58 178 76 58 18 119 38 135 43 87 30
432 31 530 2z m2575 2 c30 -9 69 -21 85 -27 17 -6 51 -17 77 -24 80 -22 227
-99 314 -165 99 -74 256 -240 293 -310 13 -25 35 -59 47 -76 13 -17 24 -36 24
-42 0 -6 6 -23 14 -39 45 -90 76 -166 76 -186 0 -13 7 -46 15 -73 20 -65 30
-341 17 -464 -14 -126 -36 -224 -65 -285 -13 -27 -32 -72 -42 -100 -10 -27
-30 -66 -44 -85 -14 -19 -34 -49 -43 -66 -26 -46 -61 -87 -168 -194 -112 -113
-179 -162 -315 -228 -112 -55 -152 -69 -245 -89 -160 -34 -241 -46 -315 -46
-59 -1 -246 23 -280 35 -16 6 -48 14 -70 19 -72 14 -135 35 -147 47 -7 7 -20
12 -29 12 -10 0 -21 4 -24 10 -3 5 -29 20 -57 32 -72 31 -236 153 -292 217
-12 13 -38 42 -59 65 -48 51 -126 166 -154 226 -67 144 -82 177 -87 200 -3 14
-12 59 -21 100 -8 41 -20 89 -25 106 -15 47 -12 344 4 412 8 31 22 91 31 132
9 41 23 89 30 105 8 17 28 62 45 100 17 39 34 75 38 81 70 111 93 143 124 176
20 22 40 48 43 59 4 10 10 19 14 19 4 0 28 20 53 45 25 25 50 45 55 45 5 0 23
13 40 29 36 32 128 91 144 91 6 0 25 11 42 24 35 26 99 53 160 66 21 4 44 13
50 19 6 6 22 11 35 11 13 0 33 5 44 11 59 32 466 35 568 5z m13845 1 c93 -33
112 -39 145 -47 55 -13 102 -32 148 -62 24 -15 47 -28 53 -28 48 0 307 -226
370 -322 13 -21 27 -38 31 -38 3 0 25 -33 47 -72 23 -40 45 -80 50 -88 8 -14
15 -30 56 -140 8 -22 22 -58 31 -79 9 -22 14 -51 10 -64 l-6 -24 -329 -2 -329
-2 -26 28 c-14 15 -26 32 -26 38 0 12 -104 119 -156 160 -89 70 -240 110 -389
102 -196 -11 -343 -98 -470 -279 -47 -66 -83 -217 -80 -333 5 -174 58 -296
179 -418 32 -31 62 -57 68 -57 5 0 27 -13 47 -28 37 -28 115 -56 186 -67 22
-3 51 -8 65 -10 40 -7 199 15 262 36 107 35 226 133 294 241 l24 38 346 0 346
0 -7 -37 c-4 -21 -10 -42 -14 -48 -5 -5 -11 -19 -14 -30 -20 -71 -70 -189
-100 -236 -19 -30 -37 -64 -41 -76 -4 -13 -11 -23 -16 -23 -4 0 -24 -24 -44
-52 -45 -68 -149 -169 -253 -247 -45 -33 -85 -61 -88 -61 -4 0 -43 -18 -87
-40 -123 -62 -231 -92 -433 -121 -109 -16 -148 -18 -175 -10 -19 6 -51 11 -70
10 -86 -3 -314 54 -395 98 -22 12 -67 35 -100 51 -33 16 -77 43 -99 61 -21 17
-42 31 -47 31 -5 0 -26 17 -47 37 -22 21 -54 52 -71 68 -82 77 -164 182 -201
255 -12 25 -31 57 -41 71 -10 14 -28 57 -39 95 -12 38 -27 83 -34 99 -51 120
-74 322 -57 508 11 113 24 177 56 267 7 19 20 60 30 90 10 30 27 73 39 94 12
21 33 61 47 88 15 27 38 61 53 77 14 15 26 32 26 38 0 14 220 233 234 233 6 0
25 12 42 28 17 15 48 36 70 47 21 11 57 32 79 46 22 15 51 29 65 32 14 3 41
11 60 17 90 32 108 38 150 50 87 23 157 28 345 25 131 -3 202 -8 230 -18z
m-8305 -42 c0 -12 -102 -126 -161 -180 -29 -27 -139 -137 -139 -140 0 -1 72
-75 160 -163 l160 -160 0 -326 c0 -321 3 -362 37 -471 43 -139 179 -273 334
-330 69 -26 88 -28 272 -32 176 -5 197 -3 197 11 0 9 -4 16 -8 16 -15 0 -152
140 -152 155 0 8 11 20 24 27 13 7 56 49 96 93 41 44 82 84 92 89 10 5 18 13
18 18 0 4 11 8 25 8 19 0 106 -81 395 -370 203 -204 370 -375 370 -380 0 -10
-661 -676 -732 -739 l-36 -31 -126 125 c-69 68 -126 130 -126 136 0 6 36 46
80 88 44 42 77 80 74 84 -4 4 -83 7 -175 7 -213 0 -346 20 -544 80 -77 24
-220 96 -263 132 -18 15 -37 28 -43 28 -6 0 -34 20 -62 45 -58 51 -69 54 -88
24 -38 -56 -291 -201 -409 -233 -36 -10 -83 -24 -105 -31 -22 -7 -58 -16 -80
-19 -22 -3 -62 -10 -90 -15 -126 -24 -342 3 -555 70 -117 37 -366 188 -383
233 -4 9 -13 16 -20 16 -27 0 -195 206 -236 290 -12 25 -31 59 -41 75 -10 17
-28 62 -40 100 -12 39 -28 86 -35 105 -36 100 -45 170 -45 343 0 193 6 228 77
447 69 213 278 474 471 588 32 19 64 40 72 46 23 19 228 103 285 116 124 31
277 37 863 39 518 1 592 -1 592 -14z m-12225 -320 l0 -320 -310 -6 c-170 -3
-323 -10 -339 -15 -16 -6 -48 -32 -70 -58 l-41 -48 -5 -817 -5 -816 -335 0
-335 0 -3 940 c-1 517 0 950 3 963 3 13 13 22 25 22 14 0 21 9 26 38 20 107
146 272 263 343 89 54 90 55 136 70 76 24 122 27 555 25 l435 -1 0 -320z
m8224 283 c11 -24 27 -63 36 -88 9 -25 29 -72 45 -105 15 -33 35 -82 45 -110
9 -27 29 -77 45 -110 15 -33 36 -80 45 -105 10 -25 32 -79 50 -120 18 -41 39
-93 46 -115 7 -22 19 -49 26 -60 7 -11 13 -27 13 -36 0 -9 7 -22 15 -29 8 -7
15 -19 15 -27 0 -16 5 -28 63 -158 19 -44 42 -101 51 -126 8 -25 26 -67 40
-92 14 -25 26 -55 26 -66 0 -33 26 -25 44 13 9 19 16 38 16 44 0 5 6 15 14 21
7 6 16 28 20 49 3 20 17 60 31 87 14 28 25 55 25 61 0 6 7 17 15 24 8 7 15 22
15 34 0 11 7 30 15 40 8 11 15 31 15 45 0 13 6 32 13 40 8 9 28 52 46 96 18
44 38 94 45 110 7 17 19 48 26 70 7 22 26 67 42 100 16 33 38 87 49 120 11 33
27 70 35 82 8 12 14 29 14 36 0 8 7 20 15 27 8 7 15 21 15 31 0 10 7 35 16 56
18 43 72 160 84 183 11 22 708 28 716 6 3 -8 -10 -48 -29 -88 -19 -40 -42 -93
-52 -118 -10 -25 -38 -86 -62 -137 -23 -50 -43 -97 -43 -103 0 -7 -6 -24 -14
-38 -8 -15 -17 -34 -20 -42 -3 -8 -10 -22 -15 -30 -5 -8 -17 -35 -26 -60 -9
-25 -29 -72 -45 -105 -15 -33 -35 -80 -45 -105 -9 -25 -32 -76 -50 -115 -18
-38 -38 -86 -45 -105 -7 -19 -25 -62 -40 -95 -16 -33 -36 -80 -45 -105 -10
-25 -31 -74 -48 -110 -32 -69 -44 -98 -73 -170 -10 -25 -22 -51 -28 -59 -12
-16 -35 -76 -43 -111 -3 -14 -11 -32 -17 -40 -14 -18 -38 -69 -61 -130 -9 -25
-30 -72 -46 -105 -16 -33 -38 -82 -47 -110 -10 -27 -29 -70 -42 -95 -13 -25
-32 -68 -42 -97 -10 -29 -26 -67 -36 -85 l-19 -33 -277 0 -278 0 -21 50 c-12
28 -26 57 -32 65 -13 19 -35 78 -42 110 -3 14 -11 32 -18 40 -6 8 -26 51 -44
95 -19 44 -39 94 -47 110 -7 17 -15 37 -18 45 -3 8 -10 22 -15 30 -5 8 -17 35
-26 60 -29 73 -56 130 -66 136 -5 3 -9 15 -9 28 0 12 -7 31 -15 42 -8 10 -15
27 -15 36 0 9 -13 40 -30 68 -16 28 -30 55 -30 60 0 11 -20 58 -60 145 -16 33
-37 85 -48 115 -11 30 -38 95 -61 143 -23 48 -41 91 -41 97 0 5 -13 35 -29 67
-16 32 -37 78 -46 103 -15 41 -23 59 -60 130 -26 52 -45 101 -45 119 0 10 -7
24 -15 31 -8 7 -15 17 -15 23 0 5 -13 39 -30 74 -16 34 -30 67 -30 73 0 5 -13
36 -29 67 -16 32 -36 78 -46 103 -9 25 -23 58 -31 73 -8 16 -14 37 -14 48 0
18 12 19 355 19 l355 0 19 -42z m10402 -713 c5 -774 7 -799 46 -846 7 -8 13
-20 13 -25 0 -16 102 -110 138 -129 19 -9 71 -23 115 -32 45 -8 88 -20 95 -25
9 -8 12 -85 12 -323 0 -261 -2 -315 -15 -325 -8 -6 -19 -9 -25 -5 -6 4 -39 9
-73 11 -68 3 -228 37 -292 61 -92 35 -210 99 -274 151 -30 23 -56 42 -60 42
-3 0 -15 14 -26 30 -25 37 -44 38 -76 4 -13 -14 -39 -35 -59 -46 -19 -12 -48
-32 -63 -45 -16 -13 -54 -35 -85 -50 -32 -14 -70 -35 -85 -46 -16 -11 -43 -23
-60 -28 -18 -4 -72 -19 -122 -32 -116 -31 -250 -51 -335 -49 -111 3 -249 22
-282 38 -15 8 -36 14 -48 14 -34 0 -178 51 -210 75 -8 6 -35 20 -60 30 -25 10
-59 31 -75 47 -17 15 -35 28 -39 28 -33 0 -306 281 -306 315 0 4 -13 24 -30
45 -16 21 -30 43 -30 50 0 7 -6 24 -14 38 -60 112 -91 208 -108 332 -4 36 -12
85 -15 110 -9 55 -9 182 -1 230 4 19 12 70 18 114 12 85 33 173 48 202 5 11
17 36 26 57 36 83 53 115 102 192 42 66 130 174 178 220 93 88 299 225 339
225 6 0 35 12 66 26 139 66 216 72 996 70 l670 -1 6 -750z"/>
<path d="M26105 4189 c-22 -12 -58 -38 -80 -57 -61 -56 -81 -94 -90 -179 -8
-69 14 -160 46 -189 12 -11 27 -31 35 -46 22 -43 129 -88 208 -88 71 0 149 29
204 74 48 41 92 143 92 216 0 92 -44 176 -123 237 l-61 47 -96 4 c-83 3 -100
0 -135 -19z m237 -64 c42 -20 112 -114 106 -142 -2 -14 -14 -19 -55 -21 -44
-3 -52 0 -58 18 -8 24 -72 70 -98 70 -10 0 -37 -9 -61 -19 -37 -17 -45 -27
-61 -75 l-19 -55 28 -41 c29 -44 58 -60 112 -60 28 0 43 9 79 45 45 47 52 48
113 29 21 -6 5 -63 -30 -107 -44 -56 -99 -80 -176 -78 -67 1 -90 12 -151 66
-52 47 -65 80 -64 166 0 61 5 84 25 120 27 49 87 95 133 102 54 9 139 0 177
-18z"/>
<path d="M2985 2913 c-37 -5 -116 -29 -170 -51 -85 -35 -211 -147 -251 -223
-32 -63 -66 -59 511 -59 593 0 550 -7 492 83 -38 58 -119 136 -182 173 -111
65 -266 95 -400 77z"/>
<path d="M8040 2911 c-25 -5 -61 -14 -80 -21 -85 -31 -116 -44 -125 -55 -5 -6
-32 -28 -59 -48 -27 -21 -64 -54 -81 -75 -41 -48 -100 -150 -109 -187 -4 -17
-11 -48 -16 -70 -14 -63 -12 -225 5 -290 31 -123 127 -268 212 -322 16 -9 44
-29 63 -43 72 -54 249 -86 378 -69 113 15 182 39 262 94 85 58 147 131 198
233 51 102 66 209 51 356 -8 83 -15 105 -55 183 -104 200 -276 309 -499 318
-55 2 -120 0 -145 -4z"/>
<path d="M12725 2858 c-33 -5 -93 -26 -134 -46 -207 -101 -321 -287 -321 -521
0 -87 4 -114 31 -194 94 -274 360 -421 657 -362 105 21 119 27 201 83 67 46
132 111 153 152 7 14 23 39 35 55 12 17 31 70 43 118 18 78 20 121 20 392 0
167 -3 310 -6 319 -5 14 -42 16 -313 15 -168 -1 -333 -6 -366 -11z"/>
<path d="M19045 2859 c-38 -5 -83 -15 -100 -23 -16 -8 -37 -17 -45 -20 -8 -3
-28 -15 -45 -26 -16 -11 -39 -24 -50 -29 -71 -34 -188 -210 -214 -323 -15 -64
-14 -231 3 -298 12 -52 22 -76 72 -166 23 -41 120 -144 136 -144 6 0 27 -13
47 -28 52 -40 202 -82 294 -82 45 0 151 20 214 40 87 29 225 145 277 235 13
22 35 79 50 127 l26 87 -2 328 -3 328 -295 1 c-162 1 -326 -2 -365 -7z"/>
</g>
</svg>
