<?xml version="1.0" standalone="no"?>
<!DOCTYPE svg PUBLIC "-//W3C//DTD SVG 20010904//EN"
 "http://www.w3.org/TR/2001/REC-SVG-20010904/DTD/svg10.dtd">
<svg xmlns="http://www.w3.org/2000/svg" style="background:transparent" viewBox="0 0 2712 501" width="100%" height="auto"><style>path{fill:#e5d9b6}</style>
<metadata>
Created by potrace 1.16, written by Peter Selinger 2001-2019
</metadata>
<g transform="translate(0.000000,501.000000) scale(0.100000,-0.100000)"
fill="#e5d9b6" stroke="none">
<path d="M26105 4189 c-22 -12 -58 -38 -80 -57 -61 -56 -81 -94 -90 -179 -8
-69 14 -160 46 -189 12 -11 27 -31 35 -46 22 -43 129 -88 208 -88 71 0 149 29
204 74 48 41 92 143 92 216 0 92 -44 176 -123 237 l-61 47 -96 4 c-83 3 -100
0 -135 -19z m237 -64 c42 -20 112 -114 106 -142 -2 -14 -14 -19 -55 -21 -44
-3 -52 0 -58 18 -8 24 -72 70 -98 70 -10 0 -37 -9 -61 -19 -37 -17 -45 -27
-61 -75 l-19 -55 28 -41 c29 -44 58 -60 112 -60 28 0 43 9 79 45 45 47 52 48
113 29 21 -6 5 -63 -30 -107 -44 -56 -99 -80 -176 -78 -67 1 -90 12 -151 66
-52 47 -65 80 -64 166 0 61 5 84 25 120 27 49 87 95 133 102 54 9 139 0 177
-18z"/>
<path d="M2985 2913 c-37 -5 -116 -29 -170 -51 -85 -35 -211 -147 -251 -223
-32 -63 -66 -59 511 -59 593 0 550 -7 492 83 -38 58 -119 136 -182 173 -111
65 -266 95 -400 77z"/>
<path d="M8040 2911 c-25 -5 -61 -14 -80 -21 -85 -31 -116 -44 -125 -55 -5 -6
-32 -28 -59 -48 -27 -21 -64 -54 -81 -75 -41 -48 -100 -150 -109 -187 -4 -17
-11 -48 -16 -70 -14 -63 -12 -225 5 -290 31 -123 127 -268 212 -322 16 -9 44
-29 63 -43 72 -54 249 -86 378 -69 113 15 182 39 262 94 85 58 147 131 198
233 51 102 66 209 51 356 -8 83 -15 105 -55 183 -104 200 -276 309 -499 318
-55 2 -120 0 -145 -4z"/>
<path d="M12725 2858 c-33 -5 -93 -26 -134 -46 -207 -101 -321 -287 -321 -521
0 -87 4 -114 31 -194 94 -274 360 -421 657 -362 105 21 119 27 201 83 67 46
132 111 153 152 7 14 23 39 35 55 12 17 31 70 43 118 18 78 20 121 20 392 0
167 -3 310 -6 319 -5 14 -42 16 -313 15 -168 -1 -333 -6 -366 -11z"/>
<path d="M19045 2859 c-38 -5 -83 -15 -100 -23 -16 -8 -37 -17 -45 -20 -8 -3
-28 -15 -45 -26 -16 -11 -39 -24 -50 -29 -71 -34 -188 -210 -214 -323 -15 -64
-14 -231 3 -298 12 -52 22 -76 72 -166 23 -41 120 -144 136 -144 6 0 27 -13
47 -28 52 -40 202 -82 294 -82 45 0 151 20 214 40 87 29 225 145 277 235 13
22 35 79 50 127 l26 87 -2 328 -3 328 -295 1 c-162 1 -326 -2 -365 -7z"/>
</g>
</svg>
